<svg xmlns="http://www.w3.org/2000/svg" width="37" height="32.526" viewBox="0 0 37 32.526">
  <path id="bank_details_" d="M37.2,36.526H1.8a.8.8,0,0,1,0-1.609H37.2a.8.8,0,0,1,0,1.609Zm-24.13-8.043a.8.8,0,1,1,0,1.609H6.63a.8.8,0,1,1,0-1.609h.8V18.026h-.8a.8.8,0,1,1,0-1.609h6.435a.8.8,0,0,1,0,1.609h-.8V28.483ZM10.652,18.026H9.043V28.483h1.609ZM22.717,28.483a.8.8,0,1,1,0,1.609H16.283a.8.8,0,1,1,0-1.609h.8V18.026h-.8a.8.8,0,0,1,0-1.609h6.435a.8.8,0,0,1,0,1.609h-.8V28.483ZM20.3,18.026H18.7V28.483H20.3ZM35.587,32.5a.8.8,0,0,1-.8.8H4.217a.8.8,0,0,1,0-1.609H34.783A.8.8,0,0,1,35.587,32.5ZM32.37,28.483a.8.8,0,1,1,0,1.609H25.935a.8.8,0,1,1,0-1.609h.8V18.026h-.8a.8.8,0,0,1,0-1.609H32.37a.8.8,0,0,1,0,1.609h-.8V28.483ZM29.957,18.026H28.348V28.483h1.609ZM2.609,13.2,19.5,4l16.891,9.2v1.609H2.609Zm30.2,0L19.5,6.321,6.145,13.2Z" transform="translate(-1 -4)" fill="#fff" fill-rule="evenodd"/>
</svg>
