<?xml version="1.0" encoding="utf-8"?>
<!-- Generator: Adobe Illustrator 26.0.2, SVG Export Plug-In . SVG Version: 6.00 Build 0)  -->
<svg version="1.1" id="Layer_1" xmlns="http://www.w3.org/2000/svg" xmlns:xlink="http://www.w3.org/1999/xlink" x="0px" y="0px"
	 viewBox="0 0 50 50" style="enable-background:new 0 0 50 50;" xml:space="preserve">
<style type="text/css">
	.st0{fill:#333333;}
</style>
<g id="_8-Email">
	<path class="st0" d="M46,8H4c-1.7,0-3,1.3-3,3v28c0,1.7,1.3,3,3,3h42c1.7,0,3-1.3,3-3V11C49,9.3,47.7,8,46,8z M45.4,10L25,25.7
		L4.6,10H45.4z M3,38.6V11.3l15.4,11.9L3,38.6z M4.4,40L20,24.4l4.4,3.4c0.4,0.3,0.9,0.3,1.2,0l4.4-3.4L45.6,40H4.4z M47,38.6
		L31.6,23.2L47,11.3V38.6z"/>
</g>
</svg>
