<svg xmlns="http://www.w3.org/2000/svg" width="33.5" height="29" viewBox="0 0 33.5 29">
  <path id="e_sign_" d="M12.689,24.024a.647.647,0,0,0-.591-.369.638.638,0,0,0-.583.351l-.446.869a.94.94,0,0,1-1.715-.118L8.375,21.9,7.758,23.7a2.506,2.506,0,0,1-2.385,1.673H4.653a.907.907,0,1,1,0-1.812h.721a.651.651,0,0,0,.619-.434L7.05,20.034a1.409,1.409,0,0,1,2.649,0l.807,2.359a2.649,2.649,0,0,1,3.839.8.661.661,0,0,0,.544.355V18.9l7.444-7.2V9.063h-7.91a1.382,1.382,0,0,1-1.4-1.359V0H1.4A1.375,1.375,0,0,0,0,1.359V27.641A1.375,1.375,0,0,0,1.4,29H20.938a1.375,1.375,0,0,0,1.4-1.359V25.375l-7.444-.006A2.5,2.5,0,0,1,12.689,24.024ZM22.333,6.9a1.337,1.337,0,0,0-.407-.957L16.232.4a1.414,1.414,0,0,0-.989-.4h-.355V7.25h7.444ZM16.75,19.652v3.91h4.012l9.4-9.22L26.218,10.5,16.75,19.652ZM33.066,9.478,31.213,7.673a1.51,1.51,0,0,0-2.094,0L27.533,9.216l3.948,3.845,1.585-1.543A1.415,1.415,0,0,0,33.066,9.478Z" fill="#fff"/>
</svg>
