<?xml version="1.0" encoding="utf-8"?>
<!-- Generator: Adobe Illustrator 26.0.2, SVG Export Plug-In . SVG Version: 6.00 Build 0)  -->
<svg version="1.1" id="Layer_1" xmlns="http://www.w3.org/2000/svg" xmlns:xlink="http://www.w3.org/1999/xlink" x="0px" y="0px"
	 viewBox="0 0 50 50" style="enable-background:new 0 0 50 50;" xml:space="preserve">
<style type="text/css">
	.st0{fill-rule:evenodd;clip-rule:evenodd;fill:#333333;}
</style>
<path class="st0" d="M44,43.5H6c-2.2,0-4-1.8-4-4v-21c0-2.2,1.8-4,4-4h15v-4c0-2.2,1.8-4,4-4s4,1.8,4,4v4h15c2.2,0,4,1.8,4,4v21
	C48,41.7,46.2,43.5,44,43.5z M18,36C18,36,18,36,18,36c0,0,0-0.8,0-0.8s1.2-0.6,2-1.4c0.5-0.4,0.7-1.4,0.7-1.4
	c0.1-0.8,0.2-2.9,0.2-3.7c0-2.1-1-4.3-4-4.3v0v0c-3,0-4,2.2-4,4.3c0,0.8,0.1,2.9,0.2,3.7c0,0,0.2,0.9,0.7,1.4c0.9,0.8,2,1.4,2,1.4
	s0,0.8,0,0.8c0,0,0,0,0,0c0,0,0,1.1,0,1.5c0,1.4-1.4,2-2.2,2c0,0,0,0,0,0c-2.6,0.1-3.2,1-3.2,1c-0.2,0.3-0.4,0.5-0.6,1h14
	c-0.2-0.5-0.4-0.8-0.6-1c0,0-0.6-0.9-3.2-1c0,0,0,0,0,0c-0.9,0-2.2-0.7-2.2-2C18,37.1,18,36,18,36z M27,10.5c0-1.1-0.9-2-2-2
	s-2,0.9-2,2v6c0,1.1,0.9,2,2,2s2-0.9,2-2V10.5z M46,18.5c0-1.1-0.9-2-2-2H29c0,2.2-1.8,4-4,4s-4-1.8-4-4H6c-1.1,0-2,0.9-2,2v21
	c0,1.1,0.9,2,2,2h1.8C8,40.9,8.5,40,9,39.3c0,0,0.8-1.7,5-1.8c0,0,0-1,0-1c-0.3-0.2-0.7-0.5-1.1-0.8c-0.3-0.2-1.2-1-1.5-2.6
	c-0.1-0.5-0.5-3.1-0.5-4.2c0-3.2,1.3-6.4,6-6.4c0,0,0.1,0,0.1,0c4.7,0,6,3.2,6,6.4c0,1.1-0.4,3.6-0.5,4.2c-0.3,1.6-1.2,2.4-1.5,2.6
	c-0.3,0.3-0.7,0.6-1.1,0.8c0,0,0,1,0,1c4.2,0.1,5,1.8,5,1.8c0.5,0.7,0.9,1.7,1.2,2.2H44c1.1,0,2-0.9,2-2V18.5z M41,27.5H29
	c-0.6,0-1-0.4-1-1s0.4-1,1-1h12c0.6,0,1,0.4,1,1S41.6,27.5,41,27.5z M29,31.5h2c0.6,0,1,0.4,1,1c0,0.6-0.4,1-1,1h-2
	c-0.6,0-1-0.4-1-1C28,31.9,28.4,31.5,29,31.5z M29,35.5h6c0.6,0,1,0.4,1,1s-0.4,1-1,1h-6c-0.6,0-1-0.4-1-1S28.4,35.5,29,35.5z
	 M33,32.5c0-0.6,0.4-1,1-1h4c0.6,0,1,0.4,1,1c0,0.6-0.4,1-1,1h-4C33.4,33.5,33,33.1,33,32.5z M24,10.5h2v2h-2V10.5z"/>
</svg>
