<?xml version="1.0" encoding="utf-8"?>
<!-- Generator: Adobe Illustrator 26.0.2, SVG Export Plug-In . SVG Version: 6.00 Build 0)  -->
<svg version="1.1" id="Layer_1" xmlns="http://www.w3.org/2000/svg" xmlns:xlink="http://www.w3.org/1999/xlink" x="0px" y="0px"
	 viewBox="0 0 50 50" style="enable-background:new 0 0 50 50;" xml:space="preserve">
<style type="text/css">
	.st0{fill:#333333;}
</style>
<path class="st0" d="M46.7,24.9c0-12-9.8-21.7-21.7-21.7S3.2,12.9,3.2,24.9c0,6.8,3.1,12.8,8,16.8c0.2,0.2,0.5,0.4,0.8,0.6
	c0.1,0.1,0.2,0.1,0.3,0.2c0.4,0.3,0.9,0.6,1.3,0.9c0.4,0.3,0.8,0.5,1.3,0.7c0.1,0.1,0.2,0.1,0.3,0.2c1.2,0.6,2.4,1.1,3.7,1.5
	c0.1,0,0.1,0,0.2,0c0.5,0.2,1.1,0.3,1.6,0.4c1.5,0.3,3.1,0.5,4.6,0.5c1,0,2.1-0.1,3.1-0.4C38.7,44.7,46.7,35.7,46.7,24.9z M24.9,5.2
	c10.9,0,19.7,8.9,19.7,19.7c0,5.4-2.2,10.3-5.7,13.8c-1.4-1.1-3.1-1.8-4.6-2.4c-1.9-0.8-3.7-1.5-4.2-2.6c-0.1-1.1-0.1-1.9-0.1-3
	c0.8-0.8,1.5-2.4,1.9-3.9c0.6-0.3,1.4-1.1,1.6-3.1c0.1-1-0.2-1.7-0.5-2.2c0.7-2.4,1.4-6.4-0.2-9c-0.8-1.2-1.9-2-3.4-2.3
	c-0.9-1.1-2.5-1.6-4.6-1.6c0,0,0,0,0,0c-3.2,0.1-5.6,1.1-7,2.9c-1.7,2.2-2,5.6-1,10c-0.4,0.5-0.7,1.3-0.6,2.2c0.3,1.9,1,2.7,1.6,3
	c0.3,1.5,1.1,3.1,1.9,3.9c0,0.2,0,0.3,0,0.5c0,0.8,0,1.5-0.1,2.4c-0.5,1.2-2.4,1.9-4.3,2.7c-1.5,0.6-3.1,1.3-4.5,2.2
	c-3.5-3.6-5.6-8.4-5.6-13.7C5.2,14,14,5.2,24.9,5.2z M24.9,44.7c-1.3,0-2.7-0.1-3.9-0.4c0,0-0.1,0-0.1,0c-0.5-0.1-1-0.2-1.5-0.4
	c-0.2-0.1-0.5-0.1-0.7-0.2c-0.3-0.1-0.7-0.2-1-0.4c-0.2-0.1-0.5-0.2-0.7-0.3c-0.4-0.2-0.8-0.4-1.2-0.6c-0.1,0-0.2-0.1-0.3-0.1
	c-1.1-0.6-2.2-1.4-3.2-2.2c1.1-0.7,2.5-1.2,3.8-1.8c2.4-1,4.7-1.9,5.5-3.9l0.1-0.2c0.1-1.1,0.1-1.9,0.1-2.8c0-0.3,0-0.6,0-0.9l0-0.6
	l-0.5-0.3c-0.4-0.3-1.4-2-1.5-3.5l-0.1-0.9h-0.8c-0.1-0.1-0.4-0.5-0.6-1.5c-0.1-0.6,0.3-0.9,0.2-0.9l0.6-0.4l-0.2-0.7
	c-1-4.1-0.9-7.1,0.5-8.9c1-1.4,2.9-2.1,5.5-2.2c1.6,0,2.7,0.4,3.1,1.1l0.2,0.4l0.5,0.1c1.1,0.2,1.9,0.6,2.4,1.5
	c1.2,2,0.6,5.9-0.2,7.9l-0.3,0.8l0.8,0.4c0.1,0.1,0.2,0.3,0.2,0.9c-0.1,1.3-0.5,1.5-0.5,1.5h-0.9L30.1,26c-0.2,1.6-1.2,3.3-1.5,3.5
	l-0.5,0.3v0.6c0,1.3,0,2.3,0.1,3.7l0.1,0.3c0.8,2,3,2.9,5.4,3.9c1.3,0.5,2.6,1,3.7,1.8c-1.7,1.3-5.3,3.5-9,4.3
	C27.2,44.5,26.1,44.7,24.9,44.7z"/>
</svg>
