<svg xmlns="http://www.w3.org/2000/svg" width="39.25" height="34.979" viewBox="0 0 39.25 34.979">
  <path id="payment_" d="M40.25,34.718h0a4.266,4.266,0,0,1-4.266,4.266H5.266A4.266,4.266,0,0,1,1,34.718V9.974A3.413,3.413,0,0,1,4.413,6.561H21.624l6.911-2.5a.845.845,0,0,1,1.082.5l.728,2h3.079a3.413,3.413,0,0,1,3.413,3.413V11.68h0a3.413,3.413,0,0,1,3.413,3.413ZM4.413,8.267h0a1.707,1.707,0,0,0,0,3.413h3.1c.011,0,.018-.014.029-.018l9.371-3.4Zm24.811.154-.906-2.495h0l-1.75.634h0l-4.7,1.707h-.009L12.437,11.68H30.408ZM35.13,9.974a1.707,1.707,0,0,0-1.707-1.707h-2.46L32.2,11.68H35.13Zm1.707,3.413H4.413a3.375,3.375,0,0,1-1.707-.474V34.718a2.56,2.56,0,0,0,2.56,2.56H35.984a2.56,2.56,0,0,0,2.56-2.56V28.745H35.13a3.413,3.413,0,0,1,0-6.826h3.413V15.093A1.707,1.707,0,0,0,36.837,13.387Zm1.707,13.652V23.626H35.13a1.707,1.707,0,0,0,0,3.413Zm-3.413-2.56h1.707v1.707H35.13Z" transform="translate(-1 -4.006)" fill="#fff" fill-rule="evenodd"/>
</svg>
