<svg xmlns="http://www.w3.org/2000/svg" width="25.875" height="25.875" viewBox="0 0 25.875 25.875">
  <path id="Icon_awesome-check-circle" data-name="Icon awesome-check-circle" d="M26.438,13.5A12.938,12.938,0,1,1,13.5.563,12.937,12.937,0,0,1,26.438,13.5ZM12,20.35l9.6-9.6a.835.835,0,0,0,0-1.18l-1.18-1.18a.835.835,0,0,0-1.18,0l-7.828,7.828L7.759,12.564a.835.835,0,0,0-1.18,0L5.4,13.744a.835.835,0,0,0,0,1.18l5.425,5.425A.835.835,0,0,0,12,20.35Z" transform="translate(-0.563 -0.563)" fill="#fff"/>
</svg>
