<?xml version="1.0" encoding="utf-8"?>
<!-- Generator: Adobe Illustrator 26.0.2, SVG Export Plug-In . SVG Version: 6.00 Build 0)  -->
<svg version="1.1" id="icon" xmlns="http://www.w3.org/2000/svg" xmlns:xlink="http://www.w3.org/1999/xlink" x="0px" y="0px"
	 viewBox="0 0 50 50" style="enable-background:new 0 0 50 50;" xml:space="preserve">
<style type="text/css">
	.st0{fill:#333333;}
</style>
<g>
	<path class="st0" d="M40.8,40.6c-4,4.1-9.4,6.4-15.2,6.4C14,46.9,4.4,37.4,4.4,25.7S14,4.5,25.6,4.5c5.7,0,11.1,2.3,15.2,6.4
		c0.3,0.3,0.8,0.3,1,0c0.3-0.3,0.3-0.8,0-1c-4.3-4.4-10.1-6.8-16.2-6.8c-6.1,0-11.8,2.4-16,6.6C5.3,14,3,19.7,3,25.7
		c0,6.1,2.4,11.8,6.6,16c4.3,4.3,10,6.6,16,6.6c6.2,0,11.9-2.4,16.2-6.8c0.3-0.3,0.3-0.8,0-1C41.6,40.3,41.1,40.3,40.8,40.6z"/>
	<path class="st0" d="M46.9,25.1l-15.6-11c-0.2-0.2-0.5-0.2-0.8-0.1c-0.2,0.1-0.4,0.4-0.4,0.7V21H19.1c-0.4,0-0.7,0.3-0.7,0.7v8.1
		c0,0.4,0.3,0.7,0.7,0.7h11.1v6.2c0,0.3,0.2,0.5,0.4,0.7c0.1,0.1,0.2,0.1,0.3,0.1c0.2,0,0.3,0,0.4-0.1l15.6-11
		c0.2-0.1,0.3-0.4,0.3-0.6S47.1,25.3,46.9,25.1z M31.6,35.3v-5.5c0-0.4-0.3-0.7-0.7-0.7H19.8v-6.6h11.1c0.4,0,0.7-0.3,0.7-0.7v-5.5
		l13.6,9.6L31.6,35.3z"/>
</g>
</svg>
